<svg width="250" height="256" viewBox="0 0 250 256" fill="none" xmlns="http://www.w3.org/2000/svg">
<path d="M38.8372 155.935C83.6537 148.487 117.336 202.635 83.2296 229.282C68.5198 240.775 47.5884 240.224 31.4354 231.233C-5.8697 210.467 0.355603 162.325 38.8372 155.935Z" fill="#FAC663" fill-opacity="0.4"/>
<path d="M75.9645 136.892C38.2386 166.367 -20.5678 114.381 7.46282 76.3813C20.2347 59.0698 47.3395 55.4882 68.9079 70.801C93.0894 87.9588 97.1733 120.322 75.9645 136.892Z" fill="#FAC663" fill-opacity="0.4"/>
<path d="M170.237 237.556C174.402 232.088 183.009 223.937 192.642 216.205C202.818 208.024 214.136 200.308 222.537 196.695C245.249 186.966 261.453 154.913 236.293 134.293C213.031 115.233 195.383 131.142 173.847 112.681C152.095 94.0127 126.452 96.8364 110.294 110.805C95.3418 123.736 88.5205 146.216 100.471 170.017C113.211 195.374 93.5345 208.606 106.402 235.775C120.318 265.212 155.342 257.136 170.237 237.556Z" fill="#FAC663" fill-opacity="0.4"/>
<path d="M142.363 85.0192C131.692 93.3564 117.931 94.6336 105.803 89.6083C69.7459 74.6625 65.6519 18.1714 100.24 3.93145C143.976 -14.094 180.068 55.5606 142.363 85.0192Z" fill="#FAC663" fill-opacity="0.4"/>
<path d="M191.435 112.68C157.341 94.0106 159.205 37.2121 195.075 26.6003C238.281 13.8162 267.597 81.3679 231.278 109.744C219.622 118.851 204.395 119.778 191.435 112.68Z" fill="#FAC663" fill-opacity="0.4"/>
</svg>
