<svg width="195" height="173" viewBox="0 0 195 173" fill="none" xmlns="http://www.w3.org/2000/svg">
<path d="M48.8443 45.5152C70.2759 69.3005 50.5453 107.141 21.6522 96.0503C9.19069 91.2668 1.59817 78.8115 0.876903 66.3372C-0.787535 37.5273 30.4457 25.09 48.8443 45.5152Z" fill="#FAC663" fill-opacity="0.4"/>
<path d="M74.3203 60.9181C42.3607 48.65 51.2836 -3.19733 84.687 0.538002C99.9053 2.24096 112.313 16.9347 111.292 34.6963C110.154 54.6065 92.2873 67.815 74.3203 60.9181Z" fill="#FAC663" fill-opacity="0.4"/>
<path d="M49.6232 149.824C54.4797 150.439 62.6263 152.761 70.9104 155.825C79.6696 159.057 88.5818 163.114 93.929 166.832C108.361 176.896 133.721 175.685 136.566 154.044C139.193 134.038 122.971 129.008 125.893 110.213C128.857 91.2225 117.457 77.1322 102.962 72.3275C89.546 67.8822 73.48 71.395 63.7272 86.3544C53.3396 102.297 37.9547 95.1826 26.5289 111.805C14.1391 129.8 32.2404 147.635 49.6232 149.824Z" fill="#FAC663" fill-opacity="0.4"/>
<path d="M130.568 82.5114C121.528 79.0412 115.553 71.4003 113.977 62.6112C109.293 36.478 141.628 15.2009 163.262 30.7202C190.629 50.3374 162.51 94.7728 130.568 82.5114Z" fill="#FAC663" fill-opacity="0.4"/>
<path d="M132.55 120.524C130.844 94.297 165.618 76.4099 185.561 93.8934C209.584 114.952 180.161 154.712 149.393 142.901C139.519 139.11 133.199 130.493 132.55 120.524Z" fill="#FAC663" fill-opacity="0.4"/>
</svg>
